<?xml version="1.0" encoding="utf-8"?>
<!-- Generator: Adobe Illustrator 21.0.0, SVG Export Plug-In . SVG Version: 6.00 Build 0)  -->
<svg version="1.1" id="Layer_1" xmlns="http://www.w3.org/2000/svg" xmlns:xlink="http://www.w3.org/1999/xlink" x="0px" y="0px"
	 viewBox="0 0 1021.3 381.1" style="enable-background:new 0 0 1021.3 381.1;" xml:space="preserve">
<style type="text/css">
	.st0{fill:none;stroke:#FFFFFF;stroke-width:11;stroke-miterlimit:10;}
	.st1{display:none;}
	.st2{display:inline;fill:none;stroke:#FFFFFF;stroke-width:10;stroke-miterlimit:10;}
	.st3{fill:none;}
	.st4{display:none;fill:#FFFFFF;}
	.st5{font-family:'MyriadPro-Regular';}
	.st6{font-size:90px;}
	.st7{fill:#FFFFFF;}
</style>
<g id="sign_up_rectangle">
	<path class="st0" d="M187,95.8h642.6c55.4,0,100.4,44.9,100.4,100.4v0c0,55.4-44.9,100.4-100.4,100.4H187
		c-55.4,0-100.4-44.9-100.4-100.4v0C86.6,140.7,131.5,95.8,187,95.8z"/>
</g>
<g id="login" class="st1">
	<path class="st2" d="M187,95.8h642.6c55.4,0,100.4,44.9,100.4,100.4v0c0,55.4-44.9,100.4-100.4,100.4H187
		c-55.4,0-100.4-44.9-100.4-100.4v0C86.6,140.7,131.5,95.8,187,95.8z"/>
</g>
<rect x="396.4" y="161.3" class="st3" width="327.6" height="94.7"/>
<text transform="matrix(1 0 0 1 396.3998 225.1696)" class="st4 st5 st6">LOGIN</text>
<rect x="238" y="156.1" class="st3" width="565.7" height="173.7"/>
<text transform="matrix(1 0 0 1 238.0299 219.9952)" class="st7 st5 st6">Browse Events</text>
</svg>
