<svg class="svg-music j-genre" xmlns="http://www.w3.org/2000/svg" viewBox="0 0 1567.2 1230.1">
    <style>
        .st100000{fill:#27d6f2}.st101{fill:#ee407f}.st103{display:inline;fill:#a9a8a8}.st104,.st106,.st107{display:inline;fill:#db4b9b}.st106,.st107{fill:#9c3571}.st107{fill:#dbd9d9}.st108{fill:#eaa1c7}.st109{fill:#ee4494}.st110{fill:#fef8fb}.st111,.st112{fill:#fef8fb;stroke:#ed218e;stroke-width:8;stroke-miterlimit:10}.st112{display:inline;fill:none;stroke:#7dd1e9;stroke-width:4}.st114{display:inline;fill:#58595a}.st115{fill:#d485b8}.st115,.st117{display:inline}.st118{fill:none}.st119,.st120{fill:#7f777f}.st120{display:inline}.st121{fill:#ffe1c0}.st122{fill:#ebe84b}.st123{fill:#a95aa3}.st124{display:inline;fill:#7dd1e9}.st126{fill:#825422}.st127,.st128,.st129{display:inline;fill:#825422;stroke:#825422;stroke-width:7.874;stroke-miterlimit:10}.st128,.st129{fill:#262524;stroke:#262524;stroke-width:5.5056}.st129{stroke-width:3.4877}.st130,.st131{display:inline;fill:#1b1a1b}.st131{fill:#757273}.st232{fill:#d13fef}
    </style>
    <g class="music-icon" id="j-traditional">
        <circle class="st100000" cx="768" cy="615.1" r="547.5" id="icon_x5F_circle"/>
        <path class="st108" d="M756.7 743.8c-110.9 0-200.8 104.1-200.8 232.5 0 64.3 22.6 122.5 59 164.6 48.6 14.1 100 21.7 153.1 21.7 42.5 0 83.9-4.8 123.6-14 40.5-42.5 66-104 66-172.3-.1-128.4-90-232.5-200.9-232.5z" id="jpop_clothes"/>
        <g id="stripes_j-pop">
            <path class="st109" d="M701.7 851.6l-42.5-9.2 6.4 310.6c14.8 2.8 29.8 5 45 6.6l-8.9-308zM828.2 842.4l-42 11.1 4.5 308.7c15.1-.6 30-1.8 44.8-3.7l-7.3-316.1zM903.9 1134.5l-9.7-327.7-5.1-5.4-25.9 9.6 8.2 341.9c6.8-1.3 13.5-2.7 20.2-4.2 4.2-4.6 8.3-9.3 12.3-14.2zM597.1 835.2l4.6 288.9c4.2 5.8 8.6 11.4 13.2 16.8 7.6 2.2 15.4 4.3 23.1 6.2l-7.2-321.8-22-6.3c-4.1 5.2-8 10.6-11.7 16.2z"/>
        </g>
        <g id="sleeves_j-pop">
            <path class="st110" d="M749.1 856.9l3.2 1c-.6-.7-1.7-1-3.2-1zM607.8 820.2c-25.8 33-43.6 74.6-49.6 120.7.1 0 164.1-84.8 191-84.1l-135.4-40.6-6 4z"/>
            <path class="st110" d="M955.2 941c0-.3-3.9-22.8-11.4-49.2-10.5-31.1-26.6-58.9-46.8-81.8-38.1-12.6-144.8 47.9-144.8 47.9 11.3 11.4 203 83.1 203 83.1z"/>
        </g>
        <g id="j-pop_collar">
            <path class="st111" d="M752.3 857.9l78.1 79.8L902.3 806l-150 51.9M752.3 857.9l-73.1 79.8L608.8 819l143.5 38.9"/>
        </g>
        <path class="st121" d="M509.5 615.1c0-134.1 108.7-242.8 242.8-242.8S995.1 481 995.1 615.1 886.4 857.9 752.3 857.9c-143.7 0-242.8-83.6-242.8-242.8z" id="skin"/>
        <g id="eyes">
            <ellipse cx="648.3" cy="591.3" rx="30.8" ry="51"/>
            <ellipse cx="856.2" cy="591.3" rx="30.8" ry="51"/>
        </g>
        <g id="jpop_hair_base">
            <path class="st101" d="M768 372.9s-175.5-25-246.9 164.8c116.6-1.9 245-3.4 245-3.4l1.9-161.4z"/>
            <path class="st101" d="M835.1 461.6l26.9 75.5c37.8 1 80.3 2.1 121.3 3.2-69.2-190.6-245-167.6-245-167.6v161.4s25.9.6 65 1.6l31.8-74.1z"/>
        </g>
        <g id="pigtails_jpop">
            <path class="st101" d="M902.3 421.9s.3-2 1-5.3c4-19.4 22.3-84.2 80.1-44.4 67.5 46.5 42.5 106.4 58.8 125.1 0 0 17.9 28.8 52.2 24.2 34.3-4.6 85.3-42.6 90.8 23.2s-16.7 140-65.8 181.7c4.6-64.9 23.2-114.9 5.6-130.7-17.6-15.8-87.1 15.8-106.6-42.6s-55.6-73.2-60.7-74.2l-5.1-.9M601.9 426.1s-.3-2-1-5.2c-4.4-19.4-23.7-83.8-80.8-43-66.8 47.6-40.8 107.1-56.7 126.1 0 0-17.4 29.1-51.7 25.1-34.4-4-86-41.2-90.4 24.7-4.4 65.9 67.8 178.8 67.8 178.8.6.9.9.8.6-.3 0 0-24.7-112.6-7.4-128.6s87.4 14.3 105.9-44.5 54.3-74.2 59.4-75.2l5.1-1"/>
        </g>
        <g id="bowties">
            <path class="st122" d="M894.9 366.2s-51.9 8.4-51 72.3c21.8 10.7 61 1.2 61 1.2l13.1-18.6c0 .1-10-59.2-23.1-54.9z"/>
            <path transform="scale(-1) rotate(35.192 1387.185 -2916.554)" class="st122" d="M908.5 426.3h32.9v27.2h-32.9z"/>
            <path class="st122" d="M1004.5 442.8s10.1 51.6-50.1 72.8c-17.6-16.7-22.3-56.8-22.3-56.8l12.9-18.7s59.1-11.1 59.5 2.7z"/>
            <path class="st123" d="M500.4 467.1s-3.2 52.5 59.4 65.6c15.3-18.9 14.6-59.3 14.6-59.3l-15.3-16.9c0 .1-60.1-3.1-58.7 10.6z"/>
            <path transform="rotate(137.842 578.909 453.928)" class="st123" d="M562.5 440.3h32.9v27.2h-32.9z"/>
            <path class="st123" d="M599.1 376.9s52.6 1.4 60.1 64.9c-20.2 13.5-60.3 9.3-60.3 9.3l-15.5-16.7s2.2-60.1 15.7-57.5z"/>
        </g>
        <g id="musical_notes">
            <g class="music_note" id="music_note1">
                <ellipse transform="scale(-1) rotate(-16.086 -2826.746 7592.52)" class="st232" cx="1073" cy="399.4" rx="61.6" ry="38.6"/>
                <path class="st232" d="M1105 360.6l-50.7-175.7s102.6-42.3 147.6 96c-19.9-18.7-57.7-65-112.3-46 22.7 73.7 40.7 143 40.7 143"/>
            </g>
            <g class="music_note" id="music_note2">
                <ellipse transform="scale(-1) rotate(-16.086 -2368.804 9000.845)" class="st232" cx="1272" cy="334.7" rx="44.5" ry="27.9"/>
                <path class="st232" d="M1295.1 306.6l-36.6-127.1s74.2-30.6 106.7 69.4c-14.4-13.5-41.7-47-81.2-33.3 16.4 53.3 29.5 103.4 29.5 103.4"/>
            </g>
            <g class="music_note" id="music_note3">
                <ellipse transform="scale(-1) rotate(-16.086 -2025.271 10137.473)" class="st232" cx="1432.6" cy="286.2" rx="31" ry="19.4"/>
                <path class="st232" d="M1448.7 266.6l-25.5-88.4s51.6-21.3 74.3 48.3c-10-9.4-29-32.7-56.5-23.2 11.4 37.1 20.5 72 20.5 72"/>
            </g>
        </g>
    </g>
</svg>
